<svg xmlns="http://www.w3.org/2000/svg" viewBox="0 0 750 200">
  <g font-family="Brandmark Sans 24 Spectrum" font-size="72" font-weight="400" text-anchor="middle">
    <g aria-label="t">
      <path fill="#f04d1a" d="M245.39 278.224h24.33v11.439h-24.33v-11.439z" class="c3"/>
      <path fill="#e32029" d="M262.636 323.647c-9.51 0-17.246-7.737-17.246-17.246v-44.115h13.98V306.4a3.27 3.27 0 0 0 5.143 2.673l8.07 11.416a17.14 17.14 0 0 1-9.947 3.157z" class="c1"/>
      <path fill="#e93621" d="M245.39 278.224h13.98v11.439h-13.98v-11.439z" class="c2"/>
    </g>
    <g aria-label="a">
      <path fill="#e32029" d="M298.371 323.598c-12.87 0-23.342-10.472-23.342-23.343s10.471-23.343 23.342-23.343c12.872 0 23.344 10.472 23.344 23.343s-10.472 23.343-23.344 23.343zm0-32.705c-5.162 0-9.362 4.2-9.362 9.362 0 5.163 4.2 9.363 9.362 9.363 5.164 0 9.364-4.2 9.364-9.363 0-5.162-4.2-9.362-9.364-9.362z" class="c1"/>
      <path fill="#f04d1a" d="M307.735 300.255h13.98v22.349h-13.98v-22.349z" class="c3"/>
      <path fill="#e93621" d="M321.715 300.255h-13.98v21.368c8.22-3.616 13.98-11.827 13.98-21.368z" class="c2"/>
    </g>
    <g aria-label="b">
      <path fill="#e32029" d="M329.911 300.303c0-12.87 10.472-23.342 23.343-23.342 12.872 0 23.343 10.471 23.343 23.342s-10.471 23.343-23.343 23.343c-12.871 0-23.343-10.471-23.343-23.343zm13.98 0c0 5.163 4.2 9.363 9.363 9.363 5.163 0 9.363-4.2 9.363-9.363 0-5.162-4.2-9.362-9.363-9.362-5.162 0-9.362 4.2-9.362 9.362z" class="c1"/>
      <path fill="#f04d1a" d="M329.911 255.303h13.98v67.349h-13.98v-67.35z" class="c3"/>
      <path fill="#e93621" d="M343.892 278.935v42.736c-8.22-3.616-13.98-11.827-13.98-21.368 0-9.54 5.76-17.751 13.98-21.368z" class="c2"/>
    </g>
    <path fill="#e32029" d="m409.921 292.819 6.747-10.232c-5.238-3.543-9.516-5.675-16.845-5.675-6.309 0-16.8 3.48-16.8 14.164 0 15.968 20.822 13.803 20.822 18.677 0 1.206-1.224 2.592-4.022 2.592s-9.048-2.205-11.706-5.139l-6.747 9.607s6.776 6.73 18.649 6.73 17.766-6.963 17.766-14.319c0-15.314-21.134-13.826-21.134-18.773 0-.684.291-2.279 3.083-2.279 2.792 0 5.535.784 10.187 4.647z" aria-label="s" class="c1"/>
    <g aria-label="p">
      <path fill="#f04d1a" d="M425.014 277.878h13.98v62.866h-13.98v-62.866z" class="c3"/>
      <path fill="#e32029" d="M448.358 323.598c-12.872 0-23.344-10.471-23.344-23.343s10.472-23.343 23.344-23.343 23.343 10.472 23.343 23.343-10.471 23.343-23.343 23.343zm0-32.705c-5.163 0-9.363 4.2-9.363 9.362 0 5.163 4.2 9.363 9.363 9.363s9.363-4.2 9.363-9.363c0-5.162-4.2-9.362-9.363-9.362z" class="c1"/>
      <path fill="#e93621" d="M438.995 321.623v-42.736c-8.22 3.617-13.98 11.827-13.98 21.368 0 9.541 5.76 17.752 13.98 21.368z" class="c2"/>
    </g>
    <path fill="#e32029" d="M478.832 255.303h13.98v67.349h-13.98v-67.35z" aria-label="l" class="c1"/>
    <g aria-label="i" transform="translate(495.368 257.206) scale(1.31064)">
      <path fill="#e32029" d="M5.04 15.822h10.667v34.125H5.04V15.822z" class="c1"/>
      <circle cx="10.373" cy="5.476" r="5.991" fill="#f04d1a" class="c3"/>
    </g>
    <g aria-label="d">
      <path fill="#e32029" d="M546.267 323.646c-12.872 0-23.344-10.471-23.344-23.343s10.472-23.342 23.344-23.342c12.871 0 23.343 10.471 23.343 23.342s-10.472 23.343-23.343 23.343zm0-32.705c-5.163 0-9.363 4.2-9.363 9.362 0 5.163 4.2 9.363 9.363 9.363 5.162 0 9.362-4.2 9.362-9.363 0-5.162-4.2-9.362-9.362-9.362z" class="c1"/>
      <path fill="#f04d1a" d="M555.63 255.303h13.98v67.349h-13.98v-67.35z" class="c3"/>
      <path fill="#e93621" d="M555.63 278.935v42.736c8.22-3.616 13.98-11.827 13.98-21.368 0-9.54-5.76-17.751-13.98-21.368z" class="c2"/>
    </g>
  </g>
  <g font-family="Brandmark Sans 24 Spectrum" font-size="72" font-weight="400" text-anchor="middle">
    <g aria-label="t">
      <path fill="#f04d1a" d="M31.89 58.095h51.496v24.21H31.89v-24.21z" class="c3"/>
      <path fill="#e32029" d="M68.391 154.232c-20.127 0-36.5-16.375-36.5-36.501V24.36H61.48v93.371a6.92 6.92 0 0 0 6.911 6.911 6.84 6.84 0 0 0 3.972-1.254l17.08 24.162a36.276 36.276 0 0 1-21.052 6.682z" class="c1"/>
      <path fill="#e93621" d="M31.89 58.095h29.59v24.21H31.89v-24.21z" class="c2"/>
    </g>
    <g aria-label="a">
      <path fill="#e32029" d="M144.026 154.13c-27.242 0-49.405-22.164-49.405-49.407s22.163-49.405 49.405-49.405c27.244 0 49.407 22.163 49.407 49.405s-22.163 49.406-49.407 49.406zm0-69.223c-10.926 0-19.816 8.89-19.816 19.816 0 10.927 8.89 19.817 19.816 19.817 10.928 0 19.818-8.89 19.818-19.817 0-10.926-8.89-19.816-19.818-19.816z" class="c1"/>
      <path fill="#f04d1a" d="M163.844 104.723h29.59v47.302h-29.59v-47.302z" class="c3"/>
      <path fill="#e93621" d="M193.433 104.723h-29.59v45.226c17.399-7.654 29.59-25.032 29.59-45.226z" class="c2"/>
    </g>
    <g aria-label="b">
      <path fill="#e32029" d="M210.781 104.825c0-27.242 22.164-49.405 49.406-49.405 27.244 0 49.407 22.163 49.407 49.405s-22.163 49.406-49.407 49.406c-27.242 0-49.406-22.163-49.406-49.406zm29.59 0c0 10.927 8.89 19.816 19.816 19.816 10.928 0 19.817-8.889 19.817-19.816 0-10.926-8.89-19.816-19.817-19.816s-19.816 8.89-19.816 19.816z" class="c1"/>
      <path fill="#f04d1a" d="M210.781 9.58h29.59v142.547h-29.59V9.58z" class="c3"/>
      <path fill="#e93621" d="M240.37 59.6v90.451c-17.397-7.653-29.589-25.032-29.589-45.226 0-20.193 12.192-37.572 29.59-45.226z" class="c2"/>
    </g>
    <path fill="#e32029" d="m380.125 88.984 14.28-21.656c-11.087-7.499-20.142-12.01-35.653-12.01-13.353 0-35.558 7.364-35.558 29.978 0 33.797 44.07 29.214 44.07 39.53 0 2.553-2.59 5.485-8.512 5.485s-19.15-4.666-24.777-10.876l-14.28 20.333s14.342 14.246 39.47 14.246 37.604-14.74 37.604-30.308c0-32.413-44.731-29.264-44.731-39.734 0-1.448.616-4.823 6.525-4.823 5.91 0 11.715 1.659 21.562 9.835z" aria-label="s" class="c1"/>
    <g aria-label="p">
      <path fill="#f04d1a" d="M412.07 57.361h29.59V190.42h-29.59V57.361z" class="c3"/>
      <path fill="#e32029" d="M461.477 154.13c-27.244 0-49.407-22.164-49.407-49.407s22.163-49.405 49.407-49.405 49.407 22.163 49.407 49.405-22.164 49.406-49.407 49.406zm0-69.223c-10.928 0-19.818 8.89-19.818 19.816 0 10.927 8.89 19.817 19.818 19.817s19.817-8.89 19.817-19.817c0-10.926-8.89-19.816-19.817-19.816z" class="c1"/>
      <path fill="#e93621" d="M441.66 149.95V59.497c-17.399 7.654-29.59 25.032-29.59 45.225 0 20.194 12.191 37.572 29.59 45.226z" class="c2"/>
    </g>
    <path fill="#e32029" d="M525.977 9.58h29.59v142.547h-29.59V9.58z" aria-label="l" class="c1"/>
    <g aria-label="i" transform="translate(586.476 457.316) scale(2.774)">
      <path fill="#e32029" d="M-4.152-144.13H6.514v34.125H-4.152v-34.125z" class="c1"/>
      <circle cx="1.181" cy="-154.477" r="5.991" fill="#f04d1a" class="c3"/>
    </g>
    <g aria-label="d">
      <path fill="#e32029" d="M668.704 154.231c-27.244 0-49.407-22.163-49.407-49.406S641.46 55.42 668.704 55.42c27.242 0 49.405 22.163 49.405 49.405s-22.163 49.406-49.405 49.406zm0-69.222c-10.928 0-19.818 8.89-19.818 19.816 0 10.927 8.89 19.816 19.818 19.816 10.926 0 19.816-8.889 19.816-19.816 0-10.926-8.89-19.816-19.816-19.816z" class="c1"/>
      <path fill="#f04d1a" d="M688.52 9.58h29.59v142.547h-29.59V9.58z" class="c3"/>
      <path fill="#e93621" d="M688.52 59.6v90.451c17.398-7.653 29.59-25.032 29.59-45.226 0-20.193-12.192-37.572-29.59-45.226z" class="c2"/>
    </g>
  </g>
</svg>
